<?xml version="1.0" encoding="UTF-8" standalone="no"?>
<svg
   xmlns:dc="http://purl.org/dc/elements/1.1/"
   xmlns:cc="http://creativecommons.org/ns#"
   xmlns:rdf="http://www.w3.org/1999/02/22-rdf-syntax-ns#"
   xmlns:svg="http://www.w3.org/2000/svg"
   xmlns="http://www.w3.org/2000/svg"
   xmlns:sodipodi="http://sodipodi.sourceforge.net/DTD/sodipodi-0.dtd"
   xmlns:inkscape="http://www.inkscape.org/namespaces/inkscape"
   width="300"
   height="300"
   viewBox="0 0 79.374998 79.375002"
   version="1.1"
   id="svg996"
   sodipodi:docname="hamburger.svg"
   inkscape:export-filename="C:\Users\amand\codeYou\skillItUp\images\hamburger.svg.png"
   inkscape:export-xdpi="329.62299"
   inkscape:export-ydpi="329.62299"
   inkscape:version="1.0.1 (3bc2e813f5, 2020-09-07)">
  <defs
     id="defs990" />
  <sodipodi:namedview
     id="base"
     pagecolor="#ffffff"
     bordercolor="#666666"
     borderopacity="1.0"
     inkscape:pageopacity="0.0"
     inkscape:pageshadow="2"
     inkscape:zoom="1.4"
     inkscape:cx="109.17187"
     inkscape:cy="166.67455"
     inkscape:document-units="mm"
     inkscape:current-layer="layer1"
     inkscape:document-rotation="0"
     showgrid="false"
     units="px"
     inkscape:window-width="1267"
     inkscape:window-height="1040"
     inkscape:window-x="234"
     inkscape:window-y="0"
     inkscape:window-maximized="0" />
  <metadata
     id="metadata993">
    <rdf:RDF>
      <cc:Work
         rdf:about="">
        <dc:format>image/svg+xml</dc:format>
        <dc:type
           rdf:resource="http://purl.org/dc/dcmitype/StillImage" />
        <dc:title></dc:title>
      </cc:Work>
    </rdf:RDF>
  </metadata>
  <g
     inkscape:label="Layer 1"
     inkscape:groupmode="layer"
     id="layer1">
    <g
       id="g1642"
       transform="matrix(1.5570138,0,0,1.5570138,-22.106485,-18.010297)">
      <path
         id="path1559"
         style="fill:#e2e9c3;stroke-width:0.770001;stroke-linecap:round;stroke-linejoin:round"
         d="m 63.877719,49.43156 c 0.08689,-3.860906 -10.830445,-3.288393 -24.190477,-3.288393 -13.360032,0 -24.190477,-0.573491 -24.190477,3.288393 10e-7,7.830634 10.830446,10.696726 24.190477,10.696726 13.360031,0 24.001488,-2.299128 24.190477,-10.696726 z"
         sodipodi:nodetypes="sssss" />
      <path
         id="ellipse1561"
         style="fill:#e2e9c3;stroke-width:0.770001;stroke-linecap:round;stroke-linejoin:round"
         d="M 63.877977,37.041668 A 24.190477,6.9925594 0 0 1 39.6875,44.034227 24.190477,6.9925594 0 0 1 15.497023,37.041668 24.190477,6.9925594 0 0 1 39.6875,30.049109 24.190477,6.9925594 0 0 1 63.877977,37.041668 Z" />
      <path
         id="ellipse1563"
         style="fill:#e2e9c3;stroke-width:0.770001;stroke-linecap:round;stroke-linejoin:round"
         d="M 63.877977,37.041668 A 24.190477,6.9925594 0 0 1 39.6875,44.034227 24.190477,6.9925594 0 0 1 15.497023,37.041668 24.190477,6.9925594 0 0 1 39.6875,30.049109 24.190477,6.9925594 0 0 1 63.877977,37.041668 Z" />
      <path
         id="ellipse1565"
         style="fill:#e2e9c3;stroke-width:0.770001;stroke-linecap:round;stroke-linejoin:round"
         d="M 63.877977,37.041668 A 24.190477,6.9925594 0 0 1 39.6875,44.034227 24.190477,6.9925594 0 0 1 15.497023,37.041668 24.190477,6.9925594 0 0 1 39.6875,30.049109 24.190477,6.9925594 0 0 1 63.877977,37.041668 Z" />
      <path
         id="ellipse1567"
         style="fill:#e2e9c3;stroke-width:0.770001;stroke-linecap:round;stroke-linejoin:round"
         d="M 63.877977,37.041668 A 24.190477,6.9925594 0 0 1 39.6875,44.034227 24.190477,6.9925594 0 0 1 15.497023,37.041668 24.190477,6.9925594 0 0 1 39.6875,30.049109 24.190477,6.9925594 0 0 1 63.877977,37.041668 Z" />
      <path
         id="ellipse1569"
         style="fill:#e2e9c3;stroke-width:0.770001;stroke-linecap:round;stroke-linejoin:round"
         d="M 63.877977,37.041668 A 24.190477,6.9925594 0 0 1 39.6875,44.034227 24.190477,6.9925594 0 0 1 15.497023,37.041668 24.190477,6.9925594 0 0 1 39.6875,30.049109 24.190477,6.9925594 0 0 1 63.877977,37.041668 Z" />
      <path
         id="ellipse1571"
         style="fill:#e2e9c3;stroke-width:0.770001;stroke-linecap:round;stroke-linejoin:round"
         d="M 63.877977,37.041668 A 24.190477,6.9925594 0 0 1 39.6875,44.034227 24.190477,6.9925594 0 0 1 15.497023,37.041668 24.190477,6.9925594 0 0 1 39.6875,30.049109 24.190477,6.9925594 0 0 1 63.877977,37.041668 Z" />
      <path
         id="ellipse1573"
         style="fill:#e2e9c3;stroke-width:0.770001;stroke-linecap:round;stroke-linejoin:round"
         d="M 63.877977,37.041668 A 24.190477,6.9925594 0 0 1 39.6875,44.034227 24.190477,6.9925594 0 0 1 15.497023,37.041668 24.190477,6.9925594 0 0 1 39.6875,30.049109 24.190477,6.9925594 0 0 1 63.877977,37.041668 Z" />
      <path
         id="ellipse1575"
         style="fill:#e2e9c3;stroke-width:0.770001;stroke-linecap:round;stroke-linejoin:round"
         d="M 63.877977,37.041668 A 24.190477,6.9925594 0 0 1 39.6875,44.034227 24.190477,6.9925594 0 0 1 15.497023,37.041668 24.190477,6.9925594 0 0 1 39.6875,30.049109 24.190477,6.9925594 0 0 1 63.877977,37.041668 Z" />
      <path
         id="ellipse1577"
         style="fill:#e2e9c3;stroke-width:0.770001;stroke-linecap:round;stroke-linejoin:round"
         d="M 63.877977,37.041668 A 24.190477,6.9925594 0 0 1 39.6875,44.034227 24.190477,6.9925594 0 0 1 15.497023,37.041668 24.190477,6.9925594 0 0 1 39.6875,30.049109 24.190477,6.9925594 0 0 1 63.877977,37.041668 Z" />
      <path
         id="ellipse1579"
         style="fill:#e2e9c3;stroke-width:0.770001;stroke-linecap:round;stroke-linejoin:round"
         d="M 63.877977,37.041668 A 24.190477,6.9925594 0 0 1 39.6875,44.034227 24.190477,6.9925594 0 0 1 15.497023,37.041668 24.190477,6.9925594 0 0 1 39.6875,30.049109 24.190477,6.9925594 0 0 1 63.877977,37.041668 Z" />
      <path
         id="ellipse1581"
         style="fill:#e2e9c3;stroke-width:0.770001;stroke-linecap:round;stroke-linejoin:round"
         d="M 63.877977,37.041668 A 24.190477,6.9925594 0 0 1 39.6875,44.034227 24.190477,6.9925594 0 0 1 15.497023,37.041668 24.190477,6.9925594 0 0 1 39.6875,30.049109 24.190477,6.9925594 0 0 1 63.877977,37.041668 Z" />
      <path
         id="ellipse1583"
         style="fill:#e2e9c3;stroke-width:0.770001;stroke-linecap:round;stroke-linejoin:round"
         d="m 63.877874,37.041668 c -10e-7,3.861884 0.131366,6.886267 -24.190477,6.992559 -23.753973,0.103811 -24.190476,-3.130675 -24.190477,-6.992559 1e-6,-3.861884 0.05813,-6.803571 24.190477,-6.992559 24.509577,-0.191942 24.190476,3.130675 24.190477,6.992559 z"
         sodipodi:nodetypes="sssss" />
      <path
         id="path1624"
         style="fill:#e2e9c3;stroke-width:0.770001;stroke-linecap:round;stroke-linejoin:round"
         d="m 63.877719,24.681845 c 0.08689,3.860906 -10.830445,3.288393 -24.190477,3.288393 -13.360032,0 -24.190477,0.573491 -24.190477,-3.288393 10e-7,-7.830634 10.830446,-10.696726 24.190477,-10.696726 13.360031,0 24.001488,2.299128 24.190477,10.696726 z"
         sodipodi:nodetypes="sssss" />
    </g>
  </g>
</svg>
