<?xml version="1.0" encoding="UTF-8" standalone="no"?>
<svg
   xmlns:dc="http://purl.org/dc/elements/1.1/"
   xmlns:cc="http://creativecommons.org/ns#"
   xmlns:rdf="http://www.w3.org/1999/02/22-rdf-syntax-ns#"
   xmlns:svg="http://www.w3.org/2000/svg"
   xmlns="http://www.w3.org/2000/svg"
   xmlns:sodipodi="http://sodipodi.sourceforge.net/DTD/sodipodi-0.dtd"
   xmlns:inkscape="http://www.inkscape.org/namespaces/inkscape"
   width="300"
   height="300"
   viewBox="0 0 79.374998 79.375002"
   version="1.1"
   id="svg8"
   sodipodi:docname="skillItUpLogo.svg"
   inkscape:version="1.0.1 (3bc2e813f5, 2020-09-07)">
  <defs
     id="defs2" />
  <sodipodi:namedview
     id="base"
     pagecolor="#ffffff"
     bordercolor="#666666"
     borderopacity="1.0"
     inkscape:pageopacity="0.0"
     inkscape:pageshadow="2"
     inkscape:zoom="1.4"
     inkscape:cx="148.63715"
     inkscape:cy="170.9313"
     inkscape:document-units="mm"
     inkscape:current-layer="g891"
     inkscape:document-rotation="0"
     showgrid="false"
     inkscape:window-width="1203"
     inkscape:window-height="1017"
     inkscape:window-x="-32000"
     inkscape:window-y="-32000"
     inkscape:window-maximized="0"
     inkscape:snap-global="false"
     units="px" />
  <metadata
     id="metadata5">
    <rdf:RDF>
      <cc:Work
         rdf:about="">
        <dc:format>image/svg+xml</dc:format>
        <dc:type
           rdf:resource="http://purl.org/dc/dcmitype/StillImage" />
        <dc:title></dc:title>
      </cc:Work>
    </rdf:RDF>
  </metadata>
  <g
     inkscape:groupmode="layer"
     id="g891"
     inkscape:label="Layer 2 copy">
    <g
       id="g988"
       transform="matrix(0.49035909,0,0,0.49035909,-5.5731753,-8.4792073)"
       style="fill:#e2e9c3;fill-opacity:1;opacity:0.99800004"
       inkscape:export-xdpi="327.90912"
       inkscape:export-ydpi="327.90912">
      <path
         id="path977"
         style="fill:#e2e9c3;fill-opacity:1;stroke:none;stroke-width:2.10279;stroke-linecap:round;stroke-linejoin:round;stroke-miterlimit:4;stroke-dasharray:none;stroke-opacity:1"
         d="m 92.683231,103.91044 a 28.066693,28.066693 0 0 0 -28.066505,28.06702 28.066693,28.066693 0 0 0 28.066505,28.0665 28.066693,28.066693 0 0 0 28.067019,-28.0665 28.066693,28.066693 0 0 0 -28.067019,-28.06702 z m -11.883512,18.23455 c 1.149501,0 2.283138,0.11327 3.401341,0.34003 1.126043,0.21895 2.099686,0.49677 2.920754,0.83302 v 4.02301 h -0.481108 c -0.70377,-0.56301 -1.567706,-1.03231 -2.592091,-1.40766 -1.016545,-0.38316 -2.056739,-0.57465 -3.120223,-0.57465 -0.375354,0 -0.750695,0.0274 -1.12603,0.0822 -0.367533,0.0469 -0.723061,0.14088 -1.067117,0.28163 -0.304975,0.1173 -0.567061,0.29711 -0.785998,0.53951 -0.218956,0.23459 -0.328663,0.50429 -0.328663,0.80925 0,0.46137 0.176258,0.81742 0.528132,1.06764 0.351896,0.24241 1.01673,0.46486 1.994194,0.66817 0.641212,0.13294 1.25476,0.26196 1.841233,0.38706 0.594291,0.12511 1.231717,0.29729 1.912027,0.51625 1.337178,0.43789 2.322502,1.03621 2.955893,1.79472 0.64121,0.75069 0.961697,1.72788 0.961697,2.93212 0,1.72033 -0.731388,3.12012 -2.193663,4.19923 -1.45446,1.0713 -3.432744,1.60713 -5.935038,1.60713 -1.446638,0 -2.709278,-0.12493 -3.788399,-0.37517 -1.071285,-0.25804 -2.07644,-0.58259 -3.014806,-0.97358 v -4.18734 h 0.492996 c 0.930526,0.74286 1.970204,1.31324 3.119704,1.71204 1.157304,0.39881 2.268096,0.59841 3.331581,0.59841 0.273695,0 0.633291,-0.0234 1.079002,-0.0703 0.445715,-0.0469 0.809377,-0.12513 1.090891,-0.23461 0.344074,-0.14076 0.625456,-0.317 0.844394,-0.52814 0.226774,-0.21111 0.340029,-0.52347 0.340029,-0.93792 0,-0.38316 -0.164042,-0.71178 -0.492477,-0.98547 -0.320596,-0.28152 -0.793464,-0.49637 -1.419035,-0.64492 -0.656867,-0.1564 -1.353195,-0.30115 -2.088245,-0.43408 -0.727223,-0.14076 -1.411377,-0.317 -2.052587,-0.52814 -1.470096,-0.47699 -2.529586,-1.12203 -3.178617,-1.93528 -0.641209,-0.82107 -0.961699,-1.83739 -0.961697,-3.04943 0,-1.62649 0.727321,-2.95211 2.181778,-3.9765 1.462278,-1.03218 3.338984,-1.54822 5.630148,-1.54822 z m 15.189253,0.31677 h 4.527888 v 10.8965 c 0,1.21204 0.25396,2.1151 0.76223,2.70939 0.50827,0.59431 1.33362,0.89194 2.4753,0.89194 1.12604,0 1.94681,-0.28543 2.4629,-0.85628 0.52391,-0.57083 0.786,-1.48609 0.786,-2.74505 v -10.8965 h 4.52737 v 11.14299 c 0,2.15823 -0.65672,3.81197 -1.97042,4.96145 -1.3137,1.14951 -3.24881,1.72445 -5.80585,1.72445 -2.55704,0 -4.492665,-0.57494 -5.806363,-1.72445 -1.305881,-1.14948 -1.959055,-2.79916 -1.959055,-4.94956 z m -6.098852,10.40608 h 2.896981 v 2.08153 H 89.89012 Z m 0.07597,3.30161 h 2.744533 v 8.56175 H 89.96609 Z" />
      <path
         id="path887"
         style="fill:#e2e9c3;fill-opacity:1;stroke:none;stroke-width:8.32596;stroke-linecap:butt;stroke-linejoin:miter;stroke-miterlimit:4;stroke-dasharray:none;stroke-opacity:1"
         d="m 341.94531,70.943359 c -9.52222,-0.09467 -19.08951,4.975962 -20.90625,15.498047 -5.62554,32.581704 6.00422,67.127454 5.7793,98.734374 -0.12521,17.62998 -0.69375,31.33173 -3.97461,48.6543 -2.50915,13.24782 -9.68076,31.31852 -10.11328,44.79492 -0.2819,8.78661 4.33398,15.50781 4.33398,15.50781 h 62.13477 c 0,0 3.16062,-9.76201 2.16797,-16.59179 -2.21329,-15.2254 -14.125,-38.50274 -14.125,-42.11524 0,-1.63027 -9.03874,-21.58422 -8.69922,-51.80859 0.41219,-36.7527 10.07507,-59.79194 4.03906,-97.175784 C 360.9443,76.29799 351.46754,71.038027 341.94531,70.943359 Z m 0.24805,21.683594 c 5.34453,-0.0136 5.04905,8.827277 5.33984,12.800777 0.38711,5.29035 -0.0641,13.09949 -5.36328,13.28321 -5.073,0.17518 -5.9362,-8.97312 -5.875,-14.04883 0.0541,-4.38293 1.00469,-11.548473 5.36328,-12.00586 0.18435,-0.01933 0.36276,-0.02886 0.53516,-0.0293 z"
         transform="scale(0.26458333)" />
      <path
         id="path885"
         style="fill:#e2e9c3;stroke:none;stroke-width:2.20291;stroke-linecap:round;stroke-linejoin:round;stroke-miterlimit:4;stroke-dasharray:none;stroke-opacity:1;fill-opacity:1"
         d="m 83.890015,85.069751 v -6.188787 h 16.439745 v 6.188787"
         sodipodi:nodetypes="cccc" />
      <path
         id="path881"
         style="fill:#e2e9c3;stroke:none;stroke-width:2.20291;stroke-linecap:round;stroke-linejoin:round;stroke-miterlimit:4;stroke-dasharray:none;stroke-opacity:1;fill-opacity:1"
         d="m 92.148379,86.269672 a 45.707556,45.707556 0 0 0 -45.554842,45.707278 45.707556,45.707556 0 0 0 45.707289,45.7078 45.707556,45.707556 0 0 0 45.707804,-45.7078 45.707556,45.707556 0 0 0 -45.707804,-45.707278 45.707556,45.707556 0 0 0 -0.152447,0 z m 0.534852,16.304418 A 29.40304,29.40304 0 0 1 122.0866,131.97746 29.40304,29.40304 0 0 1 92.683231,161.38032 29.40304,29.40304 0 0 1 63.280374,131.97746 29.40304,29.40304 0 0 1 92.683231,102.57409 Z" />
    </g>
    <g
       aria-label="SiU"
       id="text895"
       style="font-size:8.39659px;line-height:1.25;font-family:sans-serif;letter-spacing:0px;fill:#ffffff;fill-opacity:1;stroke:none;stroke-width:0.209915;stroke-opacity:1"
       transform="matrix(2.8609278,0,0,2.8609278,-251.78642,-287.32283)" />
  </g>
</svg>
